<svg width="360" height="360" viewBox="0 0 360 360" fill="none" xmlns="http://www.w3.org/2000/svg">
  <defs>
    <linearGradient id="cab" x1="70" y1="52" x2="250" y2="292" gradientUnits="userSpaceOnUse">
      <stop stop-color="#FCFCFD"/>
      <stop offset="1" stop-color="#D9DDE5"/>
    </linearGradient>
    <linearGradient id="accent" x1="204" y1="34" x2="238" y2="74" gradientUnits="userSpaceOnUse">
      <stop stop-color="#65E184"/>
      <stop offset="1" stop-color="#16A34A"/>
    </linearGradient>
    <filter id="drop" x="12" y="12" width="336" height="336" filterUnits="userSpaceOnUse">
      <feDropShadow dx="0" dy="10" stdDeviation="10" flood-color="#0F172A" flood-opacity="0.16"/>
    </filter>
  </defs>
  <g filter="url(#drop)">
    <rect x="76" y="34" width="168" height="280" rx="18" fill="url(#cab)"/>
    <rect x="76" y="92" width="168" height="2" fill="#BAC1CB"/>
    <rect x="76" y="148" width="168" height="2" fill="#BAC1CB"/>
    <rect x="76" y="204" width="168" height="2" fill="#BAC1CB"/>
    <rect x="76" y="260" width="168" height="2" fill="#BAC1CB"/>
    <rect x="198" y="26" width="32" height="18" rx="6" fill="url(#accent)"/>
    <text x="160" y="58" font-family="Arial, sans-serif" font-size="18" font-weight="700" text-anchor="middle" fill="#16A34A">Jinko</text>
    <circle cx="92" cy="60" r="3" fill="#A8B0BC"/>
    <circle cx="228" cy="60" r="3" fill="#A8B0BC"/>
    <circle cx="92" cy="286" r="3" fill="#A8B0BC"/>
    <circle cx="228" cy="286" r="3" fill="#A8B0BC"/>
    <rect x="112" y="116" width="96" height="10" rx="5" fill="#E9EEF4"/>
    <rect x="112" y="172" width="96" height="10" rx="5" fill="#E9EEF4"/>
    <rect x="112" y="228" width="96" height="10" rx="5" fill="#E9EEF4"/>
    <text x="160" y="326" font-family="Arial, sans-serif" font-size="18" font-weight="700" text-anchor="middle" fill="#1E293B">JKS-B57637-CS</text>
    <text x="160" y="348" font-family="Arial, sans-serif" font-size="11" text-anchor="middle" fill="#475569">576 V · 21.31 kWh · LFP</text>
    <rect x="108" y="314" width="12" height="16" rx="3" fill="#424750"/>
    <rect x="200" y="314" width="12" height="16" rx="3" fill="#424750"/>
    <rect x="274" y="118" width="28" height="196" rx="12" fill="url(#cab)"/>
    <rect x="274" y="154" width="28" height="2" fill="#BAC1CB"/>
    <rect x="274" y="190" width="28" height="2" fill="#BAC1CB"/>
    <rect x="274" y="226" width="28" height="2" fill="#BAC1CB"/>
    <rect x="274" y="262" width="28" height="2" fill="#BAC1CB"/>
    <text x="288" y="330" font-family="Arial, sans-serif" font-size="10" text-anchor="middle" fill="#64748B">HV stack</text>
  </g>
</svg>
