<svg width="380" height="520" viewBox="0 0 380 520" fill="none" xmlns="http://www.w3.org/2000/svg">
  <defs>
    <linearGradient id="body" x1="42" y1="34" x2="318" y2="478" gradientUnits="userSpaceOnUse">
      <stop stop-color="#F5F7FA"/>
      <stop offset="1" stop-color="#D7DBE2"/>
    </linearGradient>
    <linearGradient id="screen" x1="145" y1="122" x2="233" y2="210" gradientUnits="userSpaceOnUse">
      <stop stop-color="#E4F7ED"/>
      <stop offset="1" stop-color="#CBE9DA"/>
    </linearGradient>
    <filter id="shadow" x="10" y="10" width="360" height="500" filterUnits="userSpaceOnUse">
      <feDropShadow dx="0" dy="12" stdDeviation="12" flood-color="#0F172A" flood-opacity="0.18"/>
    </filter>
  </defs>
  <g filter="url(#shadow)">
    <rect x="36" y="28" width="308" height="456" rx="26" fill="url(#body)"/>
    <rect x="36" y="276" width="308" height="2" fill="#ABB3BE"/>
    <circle cx="74" cy="56" r="4" fill="#A7AFBA"/>
    <circle cx="306" cy="56" r="4" fill="#A7AFBA"/>
    <circle cx="74" cy="468" r="4" fill="#A7AFBA"/>
    <circle cx="306" cy="468" r="4" fill="#A7AFBA"/>
    <circle cx="74" cy="292" r="4" fill="#A7AFBA"/>
    <circle cx="306" cy="292" r="4" fill="#A7AFBA"/>
    <path d="M36 146L26 152V184L36 182V146Z" fill="#23262E"/>
    <rect x="114" y="92" width="152" height="132" rx="50" fill="#E7E9EE"/>
    <rect x="142" y="122" width="96" height="68" rx="8" fill="url(#screen)" stroke="#60A5FA" stroke-width="3"/>
    <rect x="126" y="198" width="18" height="18" rx="4" fill="#DFF3E7" stroke="#60A5FA" stroke-width="2"/>
    <rect x="156" y="198" width="18" height="18" rx="4" fill="#DFF3E7" stroke="#60A5FA" stroke-width="2"/>
    <rect x="186" y="198" width="18" height="18" rx="4" fill="#DFF3E7" stroke="#60A5FA" stroke-width="2"/>
    <rect x="216" y="198" width="18" height="18" rx="4" fill="#DFF3E7" stroke="#60A5FA" stroke-width="2"/>
    <circle cx="152" cy="108" r="3" fill="#22C55E"/>
    <circle cx="178" cy="108" r="3" fill="#22C55E"/>
    <circle cx="204" cy="108" r="3" fill="#22C55E"/>
    <circle cx="230" cy="108" r="3" fill="#93C5FD"/>
    <path d="M154 134H226" stroke="#64748B" stroke-width="2"/>
    <path d="M154 156H226" stroke="#64748B" stroke-width="2"/>
    <path d="M164 134V176" stroke="#64748B" stroke-width="2"/>
    <path d="M190 134V176" stroke="#64748B" stroke-width="2"/>
    <path d="M216 134V176" stroke="#64748B" stroke-width="2"/>
    <circle cx="177" cy="145" r="10" fill="#FEF08A" stroke="#EAB308" stroke-width="2"/>
    <circle cx="219" cy="160" r="10" fill="#DCFCE7" stroke="#22C55E" stroke-width="2"/>
    <path d="M168 154L174 146L180 154" stroke="#F97316" stroke-width="2" stroke-linecap="round" stroke-linejoin="round"/>
    <path d="M214 166L220 154L226 166" stroke="#0F766E" stroke-width="2" stroke-linecap="round" stroke-linejoin="round"/>
    <text x="190" y="78" font-family="Arial, sans-serif" font-size="25" font-weight="700" text-anchor="middle" fill="#16A34A">JinKO</text>
    <text x="190" y="96" font-family="Arial, sans-serif" font-size="10" text-anchor="middle" fill="#65A30D">Solar</text>
    <text x="190" y="334" font-family="Arial, sans-serif" font-size="20" font-weight="700" text-anchor="middle" fill="#1E293B">JKS-12H-EI</text>
    <text x="190" y="362" font-family="Arial, sans-serif" font-size="11" text-anchor="middle" fill="#475569">Three-phase hybrid inverter</text>
    <text x="190" y="382" font-family="Arial, sans-serif" font-size="11" text-anchor="middle" fill="#475569">2 MPPT · 12 kW · IP65</text>
    <rect x="92" y="400" width="196" height="38" rx="12" fill="#F8FAFC" stroke="#D8DEE8"/>
    <text x="190" y="423" font-family="Arial, sans-serif" font-size="11" text-anchor="middle" fill="#334155">PV · Battery · Smart Load · Grid</text>
    <rect x="96" y="486" width="24" height="14" rx="4" fill="#18181B"/>
    <rect x="132" y="486" width="24" height="14" rx="4" fill="#18181B"/>
    <rect x="168" y="486" width="24" height="14" rx="4" fill="#18181B"/>
    <rect x="204" y="486" width="24" height="14" rx="4" fill="#18181B"/>
    <rect x="240" y="486" width="42" height="14" rx="4" fill="#18181B"/>
    <path d="M261 500V516" stroke="#111827" stroke-width="5" stroke-linecap="round"/>
  </g>
</svg>
